<svg width="544" height="408" viewBox="0 0 544 408" fill="none" xmlns="http://www.w3.org/2000/svg">
<ellipse cx="275.17" cy="322.286" rx="107.017" ry="25.6119" fill="url(#paint0_linear_7962_11920)"/>
<path d="M145.355 311.646H145.334L145.342 311.502C145.336 311.419 145.334 311.336 145.334 311.252C145.334 311.024 145.355 310.796 145.397 310.569L153.989 164.279H396.351L404.944 310.569C404.986 310.796 405.007 311.024 405.007 311.252C405.007 311.336 405.004 311.419 404.999 311.502L405.007 311.646H404.986C403.727 323.433 346.089 332.924 275.17 332.924C204.252 332.924 146.614 323.433 145.355 311.646Z" fill="url(#paint1_linear_7962_11920)"/>
<ellipse cx="275.17" cy="164.28" rx="121.181" ry="7.09252" fill="#EDEDED"/>
<path d="M152.424 195.846C113.286 189.234 87.6848 188.121 86.081 194.114C83.1579 205.037 161.061 235.428 260.083 261.995C359.104 288.562 441.746 301.243 444.67 290.32C446.107 284.949 431.88 275.987 401.989 263.434" stroke="#67B279"/>
<path opacity="0.157994" d="M153.025 181.55C140.967 180.461 133.718 181.211 132.838 184.093C129.969 193.488 195.836 221.979 279.955 247.729C364.074 273.48 434.591 286.739 437.46 277.345C438.87 272.725 426.954 264.563 401.711 252.857" stroke="#67B279" stroke-width="2"/>
<path d="M398.881 203.149C436.313 189.934 459.244 178.48 457.744 172.459C455.012 161.487 372.161 172.722 272.692 197.555C173.222 222.387 94.8014 251.412 97.5336 262.385C98.877 267.78 115.66 268.712 147.881 265.181" stroke="#67B279" stroke-width="2"/>
<path d="M400.153 244.209C438.274 235.136 461.976 226.309 461.133 220.299C459.595 209.346 377.099 211.9 276.873 226.004C176.646 240.108 96.6431 260.421 98.1805 271.374C98.9364 276.76 115.312 279.364 147.308 279.187" stroke="url(#paint2_linear_7962_11920)" stroke-width="2"/>
<ellipse opacity="0.562779" cx="114.204" cy="6.43143" rx="114.204" ry="6.43143" transform="matrix(0.997569 -0.0696879 0.0698251 0.997559 177.398 138.27)" stroke="#67B279"/>
<ellipse opacity="0.119629" cx="112.081" cy="3.54387" rx="112.081" ry="3.54387" transform="matrix(0.992561 0.121751 -0.121988 0.992532 161.874 114.034)" stroke="#67B279"/>
<g opacity="0.433129">
<path d="M274.98 289.185C268.91 289.185 262.84 291.738 258.219 296.845C257.679 297.442 257.679 298.407 258.219 299.004C258.489 299.302 258.843 299.451 259.196 299.451C259.55 299.451 259.904 299.303 260.173 299.004C268.335 289.986 281.623 289.985 289.789 299.004C290.329 299.601 291.203 299.601 291.743 299.004C292.284 298.407 292.284 297.442 291.743 296.845C287.121 291.738 281.05 289.185 274.98 289.185Z" fill="url(#paint3_linear_7962_11920)"/>
<path d="M275.442 297.585C271.373 297.587 267.545 299.391 264.668 302.667C264.188 303.213 264.188 304.096 264.668 304.643C264.908 304.915 265.222 305.052 265.536 305.052C265.851 305.052 266.165 304.915 266.406 304.643C268.819 301.895 272.029 300.382 275.445 300.38H275.448C278.861 300.38 282.069 301.892 284.482 304.639C284.962 305.185 285.739 305.185 286.219 304.639C286.699 304.092 286.699 303.209 286.219 302.662C283.342 299.388 279.516 297.585 275.447 297.585H275.442Z" fill="url(#paint4_linear_7962_11920)"/>
<path d="M275.444 305.052C273.535 305.052 271.625 305.748 270.17 307.14C269.777 307.517 269.777 308.126 270.17 308.503C270.367 308.691 270.624 308.785 270.882 308.785C271.139 308.785 271.396 308.691 271.594 308.503C273.717 306.473 277.171 306.471 279.293 308.503C279.686 308.88 280.322 308.88 280.716 308.503C281.109 308.126 281.109 307.517 280.716 307.14C279.262 305.748 277.353 305.052 275.444 305.052Z" fill="url(#paint5_linear_7962_11920)"/>
</g>
<path d="M276.045 60.1025C268.813 60.1025 260.09 61.8113 252.908 65.5724C252.908 73.6955 252.809 93.9323 276.045 107.76C299.281 93.9323 299.182 73.6955 299.182 65.5724C292 61.8113 283.277 60.1025 276.045 60.1025V60.1025Z" fill="#67B279"/>
<path d="M276.021 107.745C252.809 93.9186 252.908 73.6927 252.908 65.5724C260.082 61.8154 268.794 60.1063 276.021 60.1025V107.745V107.745Z" fill="#67B279"/>
<path d="M275.2 91.9013L289.191 72.9541C288.166 72.1284 287.267 72.7111 286.772 73.1623L286.754 73.1638L275.088 85.3574L270.693 80.0427C268.596 77.6085 265.745 79.4652 265.079 79.9559L275.2 91.9013" fill="white"/>
<defs>
<linearGradient id="paint0_linear_7962_11920" x1="177.214" y1="357.765" x2="382.187" y2="357.765" gradientUnits="userSpaceOnUse">
<stop stop-color="#878787"/>
<stop offset="0.272836" stop-color="#ACACAC"/>
<stop offset="1" stop-color="#E7E7E7"/>
</linearGradient>
<linearGradient id="paint1_linear_7962_11920" x1="104.402" y1="331.59" x2="331.053" y2="443.379" gradientUnits="userSpaceOnUse">
<stop stop-color="#B3B3B3"/>
<stop offset="0.349077" stop-color="#E5E5E5"/>
<stop offset="0.641267" stop-color="#EEEEEE"/>
<stop offset="1" stop-color="white"/>
</linearGradient>
<linearGradient id="paint2_linear_7962_11920" x1="95.3826" y1="251.485" x2="100.272" y2="286.313" gradientUnits="userSpaceOnUse">
<stop stop-color="#DDF6FF"/>
<stop offset="1" stop-color="#67B279"/>
</linearGradient>
<linearGradient id="paint3_linear_7962_11920" x1="292.149" y1="289.185" x2="257.814" y2="289.185" gradientUnits="userSpaceOnUse">
<stop stop-color="#999999"/>
<stop offset="1" stop-color="#636363"/>
</linearGradient>
<linearGradient id="paint4_linear_7962_11920" x1="286.579" y1="297.585" x2="264.308" y2="297.585" gradientUnits="userSpaceOnUse">
<stop stop-color="#999999"/>
<stop offset="1" stop-color="#636363"/>
</linearGradient>
<linearGradient id="paint5_linear_7962_11920" x1="281.011" y1="305.052" x2="269.875" y2="305.052" gradientUnits="userSpaceOnUse">
<stop stop-color="#999999"/>
<stop offset="1" stop-color="#636363"/>
</linearGradient>
</defs>
</svg>
