<?xml version="1.0" encoding="utf-8"?>
<!-- Generator: Adobe Illustrator 19.2.1, SVG Export Plug-In . SVG Version: 6.00 Build 0)  -->
<svg version="1.1" id="Layer_1" xmlns="http://www.w3.org/2000/svg" xmlns:xlink="http://www.w3.org/1999/xlink" x="0px" y="0px"
	 viewBox="0 0 374 93.5" style="enable-background:new 0 0 374 93.5;" xml:space="preserve">
<style type="text/css">
	.st0{fill:#68BC71;}
	.st1{fill:#67B279;}
	.st2{fill:#FFFFFF;}
</style>
<g>
	<path d="M296.4,50.1l-2.7-6.7h-13.2l-2.5,6.7h-9l14.3-34.2h8l14.2,34.2H296.4z M287.3,25l-4.3,11.7h8.6L287.3,25z M266.8,36.6
		c0,2-0.3,3.8-1,5.5c-0.7,1.6-1.7,3.1-3,4.2c-1.3,1.2-2.9,2.1-4.7,2.8c-1.8,0.7-3.9,1-6.1,1c-2.3,0-4.3-0.3-6.2-1
		c-1.8-0.7-3.4-1.6-4.6-2.8c-1.3-1.2-2.3-2.6-2.9-4.2c-0.7-1.6-1-3.5-1-5.5V15.9h8.3V36c0,0.9,0.1,1.8,0.4,2.6
		c0.2,0.8,0.6,1.5,1.1,2.2c0.5,0.6,1.2,1.2,2,1.5c0.8,0.4,1.8,0.6,3,0.6s2.2-0.2,3-0.6c0.8-0.4,1.5-0.9,2-1.5
		c0.5-0.6,0.9-1.4,1.1-2.2c0.2-0.8,0.3-1.7,0.3-2.6V15.9h8.4V36.6L266.8,36.6z M230.3,47.3c-1.7,0.8-3.6,1.5-5.9,2
		c-2.2,0.5-4.7,0.8-7.3,0.8c-2.7,0-5.3-0.4-7.6-1.2c-2.3-0.8-4.3-2-5.9-3.5c-1.7-1.5-3-3.3-3.9-5.4c-0.9-2.1-1.4-4.4-1.4-7
		c0-2.6,0.5-5,1.4-7.1c0.9-2.1,2.2-3.9,3.9-5.4c1.7-1.5,3.7-2.7,5.9-3.4c2.3-0.8,4.7-1.2,7.3-1.2c2.7,0,5.2,0.4,7.5,1.2
		c2.3,0.8,4.2,1.8,5.6,3.1l-5.2,5.6c-0.8-0.9-1.9-1.6-3.2-2.2c-1.3-0.6-2.8-0.9-4.5-0.9c-1.4,0-2.8,0.3-4,0.8
		c-1.2,0.5-2.3,1.2-3.2,2.1c-0.9,0.9-1.6,2-2.1,3.2c-0.5,1.3-0.8,2.7-0.7,4.1c0,1.5,0.2,2.9,0.7,4.1c0.4,1.3,1.1,2.3,2,3.2
		c0.9,0.9,2,1.6,3.3,2.1c1.3,0.5,2.8,0.8,4.5,0.8c1,0,1.9-0.1,2.7-0.2c0.9-0.1,1.7-0.4,2.4-0.7v-5.9h-6.5v-6.3h14.1V47.3L230.3,47.3
		z M374,32.9c0,3-0.6,5.6-1.7,7.8c-1,2.1-2.5,3.9-4.4,5.4c-1.8,1.4-3.9,2.5-6.2,3.1c-2.3,0.7-4.6,1-7,1h-12.8V15.9h12.4
		c2.4,0,4.8,0.3,7.2,0.8c2.3,0.5,4.4,1.5,6.3,2.8c1.8,1.3,3.3,3.1,4.4,5.2C373.5,27,374,29.7,374,32.9L374,32.9z M365.4,32.9
		c0-1.9-0.3-3.5-0.9-4.8c-0.6-1.2-1.4-2.3-2.5-3c-1.1-0.8-2.3-1.3-3.6-1.6c-1.4-0.3-2.7-0.5-4.1-0.5h-4.1v20h3.9
		c1.5,0,2.9-0.2,4.3-0.5c1.3-0.3,2.5-0.9,3.6-1.7c1.1-0.8,1.9-1.9,2.5-3.1C365.1,36.4,365.4,34.8,365.4,32.9L365.4,32.9z
		 M193.8,32.9c0,3-0.6,5.6-1.7,7.8c-1,2.1-2.5,3.9-4.4,5.4c-1.8,1.4-3.9,2.5-6.2,3.1c-2.3,0.7-4.6,1-7,1h-12.8V15.9h12.4
		c2.4,0,4.8,0.3,7.2,0.8c2.3,0.5,4.4,1.5,6.3,2.8c1.8,1.3,3.3,3.1,4.4,5.2C193.2,27,193.8,29.7,193.8,32.9L193.8,32.9z M185.2,32.9
		c0-1.9-0.3-3.5-0.9-4.8c-0.6-1.2-1.4-2.3-2.5-3c-1.1-0.8-2.3-1.3-3.6-1.6c-1.4-0.3-2.7-0.5-4.1-0.5h-4.1v20h3.9
		c1.5,0,2.9-0.2,4.3-0.5c1.3-0.3,2.5-0.9,3.6-1.7c1.1-0.8,1.9-1.9,2.5-3.1C184.9,36.4,185.2,34.8,185.2,32.9z M150.4,50.1l-2.7-6.7
		h-13.2l-2.5,6.7h-9l14.3-34.2h8l14.2,34.2H150.4z M141.2,25l-4.3,11.7h8.6L141.2,25z M328.1,50.1l-7.2-13.6h-2.7v13.6h-7.9V15.9
		h12.8c1.6,0,3.2,0.2,4.7,0.5c1.5,0.3,2.9,0.9,4.1,1.7c1.2,0.8,2.2,1.9,2.9,3.2c0.7,1.3,1.1,3,1.1,4.9c0,2.3-0.6,4.3-1.8,5.9
		c-1.2,1.6-2.9,2.7-5.1,3.4l8.7,14.6H328.1z M327.7,26.4c0-0.8-0.2-1.5-0.5-2c-0.3-0.5-0.8-0.9-1.3-1.2c-0.5-0.3-1.1-0.5-1.7-0.6
		c-0.6-0.1-1.2-0.1-1.9-0.1h-4.3v8h3.8c0.7,0,1.3-0.1,2-0.2c0.7-0.1,1.3-0.3,1.9-0.6c0.6-0.3,1-0.7,1.4-1.3
		C327.6,27.9,327.7,27.2,327.7,26.4z M125.3,86.3V66.4h2.2v8.8h11.1v-8.8h2.2v19.9h-2.2v-8.9h-11.1v8.9L125.3,86.3L125.3,86.3z
		 M155.2,86.6c-5.9,0-9.8-4.7-9.8-10.3c0-5.5,4-10.3,9.8-10.3c5.9,0,9.8,4.7,9.8,10.3C165,81.8,161,86.6,155.2,86.6z M155.2,84.5
		c4.4,0,7.5-3.6,7.5-8.2c0-4.5-3.2-8.2-7.6-8.2s-7.5,3.6-7.5,8.2C147.6,80.9,150.8,84.5,155.2,84.5z M169.6,86.3V66.4h2.2l7,10.8
		l7-10.8h2.2v19.9h-2.2V70.2l-7,10.6h-0.1l-7-10.6v16.1H169.6L169.6,86.3z M193.4,86.3V66.4h13.9v2h-11.7v6.8h10.5v2h-10.5v6.9h11.9
		v2C207.5,86.3,193.4,86.3,193.4,86.3z"/>
	<g id="logo">
		<g id="Group-10" transform="translate(12.000000, 12.000000)">
			<g id="Group-9">
				<g id="Group-8">
					<g id="Group-7">
						<path id="Path" class="st0" d="M33.6-12C19.4-12,2.2-8.6-12-1.3c0,15.9-0.2,55.7,45.6,82.8C79.5,54.4,79.3,14.7,79.3-1.3
							C65.1-8.6,47.9-12,33.6-12L33.6-12z"/>
						<path id="Combined-Shape" class="st1" d="M33.6,81.5C-12.2,54.4-12,14.7-12-1.3C2.1-8.6,19.3-12,33.6-12
							C33.6-12,33.6,81.5,33.6,81.5z"/>
					</g>
					<path id="Fill-11" class="st2" d="M32,50.4l27.6-37.2c-2-1.6-3.8-0.5-4.8,0.4l0,0l-23,23.9l-8.7-10.4C18.9,22.4,13.3,26,12,27
						L32,50.4"/>
				</g>
			</g>
		</g>
	</g>
</g>
</svg>
