<svg width="32" height="32" viewBox="0 0 32 32" fill="none" xmlns="http://www.w3.org/2000/svg">
<g clip-path="url(#clip0_2503_38161)">
<path fill-rule="evenodd" clip-rule="evenodd" d="M16.0001 1.14819C10.5835 1.14819 5.55144 2.74857 1.37676 5.48949C1.09039 10.4753 2.22047 15.6334 4.92875 20.3243C7.63144 25.0055 11.5229 28.5582 15.9725 30.8039L16.0001 30.8518L16.0277 30.8039C20.4772 28.5582 24.3687 25.0055 27.0714 20.3243C29.7797 15.6335 30.9098 10.4754 30.6234 5.48949C26.4487 2.74857 21.4166 1.14819 16.0001 1.14819Z" fill="url(#paint0_linear_2503_38161)"/>
<path fill-rule="evenodd" clip-rule="evenodd" d="M20.6147 11.921C21.0632 12.4218 21.062 13.2323 20.6119 13.7314L17.1768 17.5409C16 18.9704 15.2574 18.9704 14.0336 17.5409L11.8825 15.1554C11.4324 14.6563 11.4312 13.8457 11.8797 13.345C12.3283 12.8442 13.0567 12.8428 13.5068 13.3419L15.6052 15.669L18.9876 11.9179C19.4377 11.4188 20.1661 11.4202 20.6147 11.921Z" fill="white"/>
</g>
<defs>
<linearGradient id="paint0_linear_2503_38161" x1="16.0001" y1="1.14819" x2="16.0001" y2="30.8518" gradientUnits="userSpaceOnUse">
<stop stop-color="#67B279"/>
<stop offset="1" stop-color="#589968"/>
</linearGradient>
<clipPath id="clip0_2503_38161">
<rect width="32" height="32" fill="white"/>
</clipPath>
</defs>
</svg>
