<?xml version="1.0" encoding="utf-8"?>
<!-- Generator: Adobe Illustrator 23.0.6, SVG Export Plug-In . SVG Version: 6.00 Build 0)  -->
<svg version="1.1" id="Layer_1" xmlns="http://www.w3.org/2000/svg" xmlns:xlink="http://www.w3.org/1999/xlink" x="0px" y="0px"
	 width="164px" height="41px" viewBox="0 0 164 41" enable-background="new 0 0 164 41" xml:space="preserve">
<g>
	<path fill-rule="evenodd" clip-rule="evenodd" fill="#FFFFFF" d="M130,22l-1.2-2.9H123l-1.1,2.9H118l6.3-15h3.5l6.2,15H130z
		 M126,11l-1.9,5.1h3.8L126,11z M117,16.1c0,0.9-0.2,1.7-0.5,2.4c-0.3,0.7-0.7,1.3-1.3,1.9c-0.6,0.5-1.3,0.9-2.1,1.2
		c-0.8,0.3-1.7,0.4-2.7,0.4c-1,0-1.9-0.1-2.7-0.4c-0.8-0.3-1.5-0.7-2-1.2c-0.6-0.5-1-1.2-1.3-1.9c-0.3-0.7-0.4-1.5-0.4-2.4V7h3.6
		v8.8c0,0.4,0.1,0.8,0.2,1.1c0.1,0.4,0.3,0.7,0.5,1c0.2,0.3,0.5,0.5,0.9,0.7s0.8,0.2,1.3,0.2s1-0.1,1.3-0.2c0.4-0.2,0.7-0.4,0.9-0.7
		c0.2-0.3,0.4-0.6,0.5-1s0.2-0.7,0.2-1.1V7h3.7V16.1L117,16.1z M101,20.8c-0.7,0.4-1.6,0.7-2.6,0.9s-2,0.3-3.2,0.3
		c-1.2,0-2.3-0.2-3.3-0.5c-1-0.4-1.9-0.9-2.6-1.5c-0.7-0.7-1.3-1.5-1.7-2.4c-0.4-0.9-0.6-1.9-0.6-3.1c0-1.1,0.2-2.2,0.6-3.1
		c0.4-0.9,1-1.7,1.7-2.4c0.8-0.7,1.6-1.2,2.6-1.5C92.9,7.2,94,7,95.1,7c1.2,0,2.3,0.2,3.3,0.5c1,0.3,1.8,0.8,2.5,1.4l-2.3,2.5
		c-0.4-0.4-0.8-0.7-1.4-1c-0.6-0.2-1.2-0.4-2-0.4c-0.6,0-1.2,0.1-1.8,0.3c-0.5,0.2-1,0.5-1.4,0.9c-0.4,0.4-0.7,0.9-0.9,1.4
		c-0.2,0.6-0.3,1.2-0.3,1.8c0,0.7,0.1,1.3,0.3,1.8s0.5,1,0.9,1.4c0.4,0.4,0.9,0.7,1.4,0.9c0.6,0.2,1.2,0.3,2,0.3
		c0.4,0,0.8,0,1.2-0.1c0.4-0.1,0.7-0.2,1.1-0.3V16h-2.9v-2.8h6.2V20.8L101,20.8z M164,14.5c0,1.3-0.2,2.4-0.7,3.4
		c-0.5,0.9-1.1,1.7-1.9,2.4c-0.8,0.6-1.7,1.1-2.7,1.4c-1,0.3-2,0.4-3.1,0.4H150V7h5.4c1.1,0,2.1,0.1,3.1,0.4c1,0.2,1.9,0.6,2.8,1.2
		c0.8,0.6,1.5,1.3,1.9,2.3C163.8,11.9,164,13,164,14.5L164,14.5z M160.2,14.5c0-0.8-0.1-1.6-0.4-2.1c-0.3-0.5-0.6-1-1.1-1.3
		c-0.5-0.3-1-0.6-1.6-0.7c-0.6-0.1-1.2-0.2-1.8-0.2h-1.8v8.8h1.7c0.6,0,1.3-0.1,1.9-0.2c0.6-0.1,1.1-0.4,1.6-0.7
		c0.5-0.4,0.8-0.8,1.1-1.4C160.1,16,160.2,15.3,160.2,14.5L160.2,14.5z M85,14.5c0,1.3-0.2,2.4-0.7,3.4c-0.5,0.9-1.1,1.7-1.9,2.4
		c-0.8,0.6-1.7,1.1-2.7,1.4c-1,0.3-2,0.4-3.1,0.4H71V7h5.4c1.1,0,2.1,0.1,3.1,0.4c1,0.2,1.9,0.6,2.8,1.2c0.8,0.6,1.5,1.3,1.9,2.3
		C84.8,11.9,85,13,85,14.5L85,14.5z M81.2,14.5c0-0.8-0.1-1.6-0.4-2.1c-0.3-0.5-0.6-1-1.1-1.3c-0.5-0.3-1-0.6-1.6-0.7
		c-0.6-0.1-1.2-0.2-1.8-0.2h-1.8v8.8h1.7c0.7,0,1.3-0.1,1.9-0.2c0.6-0.1,1.1-0.4,1.6-0.7c0.5-0.4,0.8-0.8,1.1-1.4
		C81.1,16,81.2,15.3,81.2,14.5z M66,22l-1.2-2.9H59L57.9,22H54l6.3-15h3.5L70,22H66z M62,11l-1.9,5.1h3.8L62,11z M143.9,22l-3.2-6
		h-1.2v6H136V7h5.6c0.7,0,1.4,0.1,2.1,0.2c0.7,0.1,1.3,0.4,1.8,0.8c0.5,0.4,1,0.8,1.3,1.4c0.3,0.6,0.5,1.3,0.5,2.2
		c0,1-0.3,1.9-0.8,2.6c-0.5,0.7-1.3,1.2-2.2,1.5L148,22H143.9z M143.7,11.6c0-0.4-0.1-0.6-0.2-0.9c-0.1-0.2-0.3-0.4-0.6-0.5
		c-0.2-0.1-0.5-0.2-0.8-0.2c-0.3,0-0.5-0.1-0.8-0.1h-1.9v3.5h1.7c0.3,0,0.6,0,0.9-0.1s0.6-0.1,0.8-0.3c0.2-0.1,0.5-0.3,0.6-0.6
		C143.6,12.3,143.7,12,143.7,11.6z M55,37.9v-8.7h1V33h4.9v-3.9h1v8.7h-1v-3.9H56v3.9L55,37.9L55,37.9z M68.1,38
		c-2.6,0-4.3-2.1-4.3-4.5c0-2.4,1.7-4.5,4.3-4.5c2.6,0,4.3,2.1,4.3,4.5C72.4,35.9,70.6,38,68.1,38z M68.1,37.1
		c1.9,0,3.3-1.6,3.3-3.6c0-2-1.4-3.6-3.3-3.6c-1.9,0-3.3,1.6-3.3,3.6C64.8,35.5,66.2,37.1,68.1,37.1z M74.4,37.9v-8.7h1l3.1,4.7
		l3.1-4.7h1v8.7h-1v-7l-3.1,4.7h0l-3.1-4.6v7H74.4L74.4,37.9z M84.8,37.9v-8.7h6.1V30h-5.1v3h4.6v0.9h-4.6v3H91v0.9
		C91,37.9,84.8,37.9,84.8,37.9z"/>
	<path fill="#FFFFFF" d="M2.8,14c0.8,4.3,2.3,8.3,4.7,12.1c3,4.7,7.2,8.8,13,12.3c5.8-3.5,10-7.7,13-12.3c2.4-3.8,3.9-7.9,4.7-12.1
		c0.5-2.7,0.6-4.8,0.7-8c-5.5-2.5-12.2-3.9-18.3-3.9C14.4,2.1,7.6,3.5,2.2,6C2.2,9.2,2.3,11.3,2.8,14L2.8,14z M20.5,0
		C26.9,0,34.6,1.5,41,4.7c0,7,0.1,24.4-20.5,36.3C-0.1,29.1,0,11.7,0,4.7C6.4,1.5,14.1,0,20.5,0z"/>
	<path fill-rule="evenodd" clip-rule="evenodd" fill="#FFFFFF" d="M20.2,27L33,11.3c-0.9-0.7-1.8-0.2-2.2,0.2l0,0L20.1,21.6l-4-4.4
		c-1.9-2-4.5-0.5-5.1-0.1L20.2,27"/>
</g>
</svg>