<svg viewBox="0 0 118 26" xmlns="http://www.w3.org/2000/svg"><path fill="#232323" d="M92.535 18.314l-.897-2.259h-4.47l-.849 2.259h-3.034L88.13 6.809h2.708l4.796 11.505h-3.1zm-3.1-8.434l-1.468 3.949h2.904L89.435 9.88zm-6.607 4.095c0 .693-.117 1.324-.35 1.893a4.115 4.115 0 0 1-1.004 1.463 4.63 4.63 0 0 1-1.574.95c-.614.228-1.297.341-2.047.341-.761 0-1.447-.113-2.056-.34a4.468 4.468 0 0 1-1.55-.951 4.126 4.126 0 0 1-.978-1.463 5.038 5.038 0 0 1-.343-1.893V6.809H75.7v6.939c0 .314.041.612.123.893.081.282.206.534.375.756.169.222.392.398.669.528s.612.195 1.003.195c.392 0 .726-.065 1.003-.195a1.83 1.83 0 0 0 .677-.528 2.1 2.1 0 0 0 .376-.756c.076-.281.114-.58.114-.893v-6.94h2.79v7.167zm-11.446 3.64a8.898 8.898 0 0 1-1.982.715 10.43 10.43 0 0 1-2.472.276c-.924 0-1.775-.146-2.553-.439a5.895 5.895 0 0 1-2.006-1.235 5.63 5.63 0 0 1-1.314-1.909c-.315-.742-.473-1.568-.473-2.478 0-.92.16-1.755.482-2.502a5.567 5.567 0 0 1 1.33-1.91 5.893 5.893 0 0 1 1.99-1.21 7.044 7.044 0 0 1 2.463-.423c.913 0 1.762.138 2.545.414.783.277 1.419.648 1.908 1.114l-1.762 1.998a3.05 3.05 0 0 0-1.076-.772c-.446-.2-.952-.3-1.517-.3-.49 0-.941.09-1.354.268a3.256 3.256 0 0 0-1.077.747 3.39 3.39 0 0 0-.71 1.138 3.977 3.977 0 0 0-.253 1.438c0 .53.077 1.018.229 1.463.152.444.378.826.677 1.145.299.32.669.569 1.11.748.44.178.943.268 1.508.268.326 0 .636-.025.93-.073.294-.05.566-.128.816-.236v-2.096h-2.203V11.52h4.764v6.094zm46.107-5.086c0 1.007-.188 1.877-.563 2.608a5.262 5.262 0 0 1-1.484 1.804 6.199 6.199 0 0 1-2.08 1.04 8.459 8.459 0 0 1-2.35.333h-4.306V6.809h4.176c.816 0 1.62.095 2.414.284.794.19 1.501.504 2.121.943.62.438 1.12 1.026 1.5 1.763.382.736.572 1.646.572 2.73zm-2.904 0c0-.65-.106-1.19-.318-1.617a2.724 2.724 0 0 0-.848-1.024 3.4 3.4 0 0 0-1.208-.544 5.955 5.955 0 0 0-1.394-.163h-1.387v6.728h1.321c.5 0 .982-.057 1.444-.17.462-.115.87-.301 1.224-.562a2.78 2.78 0 0 0 .848-1.04c.212-.433.318-.97.318-1.608zm-55.226 0c0 1.007-.188 1.877-.563 2.608a5.262 5.262 0 0 1-1.484 1.804 6.199 6.199 0 0 1-2.08 1.04 8.459 8.459 0 0 1-2.35.333h-4.306V6.809h4.176c.816 0 1.62.095 2.414.284.794.19 1.501.504 2.121.943.62.438 1.12 1.026 1.5 1.763.382.736.572 1.646.572 2.73zm-2.904 0c0-.65-.106-1.19-.318-1.617a2.724 2.724 0 0 0-.848-1.024 3.4 3.4 0 0 0-1.207-.544 5.955 5.955 0 0 0-1.395-.163H51.3v6.728h1.321c.5 0 .982-.057 1.444-.17.462-.115.87-.301 1.224-.562a2.78 2.78 0 0 0 .848-1.04c.212-.433.318-.97.318-1.608zm-11.86 5.785l-.897-2.259h-4.47l-.848 2.259h-3.034L40.19 6.809h2.708l4.796 11.505h-3.1zm-3.1-8.434l-1.467 3.949h2.903L41.496 9.88zm61.203 8.434l-2.496-4.566h-.946v4.566h-2.74V6.809h4.404c.555 0 1.096.057 1.623.17.528.114 1 .306 1.42.577.418.271.752.629 1.003 1.073.25.444.375.996.375 1.657 0 .78-.212 1.436-.636 1.966-.425.531-1.012.91-1.762 1.138l3.018 4.924h-3.263zm-.114-7.979c0-.27-.057-.49-.171-.658a1.172 1.172 0 0 0-.44-.39 1.919 1.919 0 0 0-.604-.187 4.469 4.469 0 0 0-.645-.049H99.24v2.681h1.321c.228 0 .462-.018.701-.056.24-.038.457-.106.653-.204.196-.097.356-.238.481-.422s.188-.422.188-.715z"/><path fill="#68bc71" d="M12.651 0C8.697 0 3.927.93 0 2.977c0 4.42-.054 15.433 12.651 22.958C25.357 18.41 25.303 7.397 25.303 2.977 21.376.93 16.606 0 12.651 0z"/><path fill="#67b279" d="M12.638 25.927C-.054 18.403 0 7.396 0 2.977 3.923.932 8.687.002 12.638 0v25.927z"/><path fill="#fff" d="M12.19 17.305l7.65-10.311c-.56-.45-1.052-.133-1.323.113h-.01l-6.379 6.636-2.403-2.892c-1.147-1.325-2.705-.314-3.07-.047l5.535 6.5"/></svg>
