<svg width="340" height="91" viewBox="0 0 340 91" xmlns="http://www.w3.org/2000/svg"><g fill="none" fill-rule="evenodd"><path d="M265.964 50l-2.615-6.675h-13.03L247.844 50H239l14.124-34h7.894L275 50h-9.036zm-9.035-24.924l-4.28 11.67h8.465l-4.185-11.67zM238 37.231c0 2.054-.342 3.924-1.027 5.609-.685 1.685-1.664 3.129-2.938 4.333-1.274 1.203-2.811 2.142-4.61 2.816-1.8.674-3.799 1.011-5.997 1.011-2.23 0-4.236-.337-6.02-1.011-1.783-.674-3.296-1.613-4.538-2.816-1.242-1.204-2.198-2.648-2.867-4.333S209 39.285 209 37.23V16h8.122v20.557c0 .93.12 1.813.358 2.648a6.82 6.82 0 0 0 1.1 2.239c.493.658 1.146 1.18 1.958 1.564.812.385 1.791.578 2.938.578 1.147 0 2.126-.193 2.938-.578.813-.385 1.473-.906 1.983-1.564a6.248 6.248 0 0 0 1.099-2.239c.223-.835.334-1.717.334-2.648V16H238v21.231zM204 47.134c-1.623.846-3.52 1.535-5.69 2.067-2.17.533-4.534.799-7.094.799-2.654 0-5.096-.423-7.329-1.268-2.232-.846-4.152-2.036-5.76-3.57-1.607-1.536-2.864-3.376-3.769-5.521-.905-2.145-1.358-4.534-1.358-7.164 0-2.663.46-5.074 1.381-7.235.921-2.161 2.194-4.002 3.817-5.52 1.623-1.52 3.528-2.686 5.713-3.5 2.185-.815 4.542-1.222 7.07-1.222 2.623 0 5.058.4 7.306 1.198 2.248.799 4.074 1.871 5.479 3.218l-5.058 5.779c-.78-.909-1.81-1.652-3.09-2.232-1.28-.58-2.732-.869-4.355-.869-1.405 0-2.7.258-3.887.775a9.345 9.345 0 0 0-3.09 2.161c-.875.924-1.554 2.02-2.038 3.289-.483 1.268-.725 2.654-.725 4.158 0 1.534.218 2.944.655 4.228.437 1.284 1.085 2.388 1.944 3.312.858.924 1.92 1.644 3.184 2.16 1.264.518 2.708.776 4.331.776.937 0 1.827-.07 2.67-.211a9.929 9.929 0 0 0 2.341-.682V36h-6.322v-6.483H204v17.617zM340 32.904c0 2.977-.54 5.547-1.618 7.708-1.079 2.16-2.501 3.937-4.268 5.33a17.637 17.637 0 0 1-5.98 3.074c-2.22.656-4.47.984-6.753.984H309V16h12.006c2.345 0 4.659.28 6.941.84 2.282.56 4.315 1.49 6.097 2.786s3.22 3.033 4.315 5.21c1.094 2.177 1.641 4.866 1.641 8.068zm-8.348 0c0-1.921-.305-3.514-.914-4.778-.61-1.265-1.423-2.273-2.44-3.026a9.649 9.649 0 0 0-3.47-1.608 16.677 16.677 0 0 0-4.01-.48h-3.986v19.88h3.799a16.86 16.86 0 0 0 4.15-.504c1.33-.336 2.502-.888 3.518-1.656 1.016-.769 1.829-1.793 2.439-3.074.61-1.28.914-2.865.914-4.754zM169 32.904c0 2.977-.54 5.547-1.618 7.708-1.079 2.16-2.501 3.937-4.268 5.33a17.637 17.637 0 0 1-5.98 3.074c-2.22.656-4.47.984-6.753.984H138V16h12.006c2.345 0 4.659.28 6.941.84 2.282.56 4.315 1.49 6.097 2.786s3.22 3.033 4.315 5.21c1.094 2.177 1.641 4.866 1.641 8.068zm-8.348 0c0-1.921-.305-3.514-.914-4.778-.61-1.265-1.423-2.273-2.44-3.026a9.649 9.649 0 0 0-3.47-1.608 16.677 16.677 0 0 0-4.01-.48h-3.986v19.88h3.799a16.86 16.86 0 0 0 4.15-.504c1.33-.336 2.502-.888 3.518-1.656 1.016-.769 1.829-1.793 2.439-3.074.61-1.28.914-2.865.914-4.754zM126.964 50l-2.615-6.675h-13.03L108.844 50H100l14.124-34h7.894L136 50h-9.036zm-9.035-24.924l-4.28 11.67h8.465l-4.185-11.67zM295.674 50l-7.135-13.494h-2.705V50H278V16h12.59c1.586 0 3.133.168 4.64.504 1.508.336 2.86.905 4.058 1.705 1.196.8 2.152 1.857 2.867 3.17.715 1.312 1.073 2.945 1.073 4.898 0 2.305-.606 4.242-1.819 5.81-1.212 1.57-2.89 2.69-5.036 3.362L305 50h-9.326zm-.327-23.58c0-.8-.163-1.448-.49-1.944a3.39 3.39 0 0 0-1.259-1.153 5.355 5.355 0 0 0-1.725-.552 12.364 12.364 0 0 0-1.842-.144h-4.243v7.924h3.777c.653 0 1.321-.056 2.005-.168a6.257 6.257 0 0 0 1.865-.6 3.596 3.596 0 0 0 1.376-1.25c.357-.543.536-1.248.536-2.112z" fill="#242424"/><path d="M44.477 0C30.575 0 13.805 3.255 0 10.419 0 25.89-.19 64.436 44.477 90.772 89.145 64.436 88.956 25.89 88.956 10.42 75.149 3.255 58.38 0 44.476 0z" fill="#68BC71"/><path d="M44.431 90.746C-.19 64.41 0 25.886 0 10.419 13.79 3.263 30.538.007 44.431 0v90.746z" fill="#67B279"/><path d="M42.854 60.566L69.75 24.477c-1.97-1.572-3.7-.462-4.65.397l-.036.003L42.64 48.102l-8.45-10.123c-4.03-4.636-9.51-1.1-10.79-.165l19.455 22.752" fill="#FFF"/><path d="M102.65 83V64.8h2.054v8.086h10.504V64.8h2.054V83h-2.054v-8.19h-10.504V83h-2.054zm28.21.312c-5.538 0-9.256-4.342-9.256-9.412 0-5.018 3.77-9.412 9.308-9.412s9.256 4.342 9.256 9.412c0 5.018-3.77 9.412-9.308 9.412zm.052-1.898c4.16 0 7.124-3.328 7.124-7.514 0-4.134-3.016-7.514-7.176-7.514s-7.124 3.328-7.124 7.514c0 4.134 3.016 7.514 7.176 7.514zM144.51 83V64.8h2.08l6.63 9.932 6.63-9.932h2.08V83h-2.054V68.258l-6.63 9.75h-.104l-6.63-9.724V83h-2.002zm22.568 0V64.8h13.156v1.872h-11.102v6.214h9.932v1.872h-9.932v6.37h11.232V83h-13.286z" fill="#4D4D4D"/></g></svg>